<svg width="32" height="32" viewBox="0 0 32 32" fill="none" xmlns="http://www.w3.org/2000/svg">
<path d="M16 24.5C20.6944 24.5 24.5 20.6944 24.5 16C24.5 11.3056 20.6944 7.5 16 7.5C11.3056 7.5 7.5 11.3056 7.5 16C7.5 20.6944 11.3056 24.5 16 24.5Z" fill="black"/>
<path d="M16 5.5C16.2652 5.5 16.5196 5.39464 16.7071 5.20711C16.8946 5.01957 17 4.76522 17 4.5V2C17 1.73478 16.8946 1.48043 16.7071 1.29289C16.5196 1.10536 16.2652 1 16 1C15.7348 1 15.4804 1.10536 15.2929 1.29289C15.1054 1.48043 15 1.73478 15 2V4.5C15 4.76522 15.1054 5.01957 15.2929 5.20711C15.4804 5.39464 15.7348 5.5 16 5.5Z" fill="black"/>
<path d="M7.16249 8.57499C7.35153 8.75901 7.60493 8.86198 7.86874 8.86198C8.13256 8.86198 8.38595 8.75901 8.57499 8.57499C8.762 8.38752 8.86703 8.13354 8.86703 7.86874C8.86703 7.60394 8.762 7.34996 8.57499 7.16249L6.81249 5.38749C6.72283 5.27824 6.61129 5.18898 6.48505 5.12544C6.35881 5.06189 6.22066 5.02549 6.0795 5.01855C5.93834 5.01162 5.79729 5.03432 5.66543 5.08518C5.53357 5.13605 5.41382 5.21395 5.31389 5.31389C5.21395 5.41382 5.13605 5.53357 5.08518 5.66543C5.03432 5.79729 5.01162 5.93834 5.01855 6.0795C5.02549 6.22066 5.06189 6.35881 5.12544 6.48505C5.18898 6.61129 5.27824 6.72283 5.38749 6.81249L7.16249 8.57499Z" fill="black"/>
<path d="M5.5 16C5.5 15.7348 5.39464 15.4804 5.20711 15.2929C5.01957 15.1054 4.76522 15 4.5 15H2C1.73478 15 1.48043 15.1054 1.29289 15.2929C1.10536 15.4804 1 15.7348 1 16C1 16.2652 1.10536 16.5196 1.29289 16.7071C1.48043 16.8946 1.73478 17 2 17H4.5C4.76522 17 5.01957 16.8946 5.20711 16.7071C5.39464 16.5196 5.5 16.2652 5.5 16Z" fill="black"/>
<path d="M7.16249 23.425L5.38749 25.1875C5.1997 25.3771 5.09436 25.6331 5.09436 25.9C5.09436 26.1668 5.1997 26.4229 5.38749 26.6125C5.58081 26.7938 5.83494 26.8964 6.09999 26.9C6.36553 26.8988 6.62053 26.7959 6.81249 26.6125L8.57499 24.8375C8.74734 24.6472 8.83995 24.398 8.83363 24.1414C8.82732 23.8848 8.72256 23.6404 8.54104 23.4589C8.35953 23.2774 8.11517 23.1726 7.85855 23.1663C7.60193 23.16 7.35271 23.2526 7.16249 23.425V23.425Z" fill="black"/>
<path d="M16 26.5C15.7348 26.5 15.4804 26.6054 15.2929 26.7929C15.1054 26.9804 15 27.2348 15 27.5V30C15 30.2652 15.1054 30.5196 15.2929 30.7071C15.4804 30.8946 15.7348 31 16 31C16.2652 31 16.5196 30.8946 16.7071 30.7071C16.8946 30.5196 17 30.2652 17 30V27.5C17 27.2348 16.8946 26.9804 16.7071 26.7929C16.5196 26.6054 16.2652 26.5 16 26.5Z" fill="black"/>
<path d="M24.8375 23.425C24.6473 23.2526 24.3981 23.16 24.1415 23.1663C23.8848 23.1726 23.6405 23.2774 23.459 23.4589C23.2775 23.6404 23.1727 23.8848 23.1664 24.1414C23.1601 24.398 23.2527 24.6472 23.425 24.8375L25.1875 26.6125C25.3795 26.7959 25.6345 26.8988 25.9 26.9C26.1651 26.8964 26.4192 26.7938 26.6125 26.6125C26.8003 26.4229 26.9057 26.1668 26.9057 25.9C26.9057 25.6331 26.8003 25.3771 26.6125 25.1875L24.8375 23.425Z" fill="black"/>
<path d="M30 15H27.5C27.2348 15 26.9804 15.1054 26.7929 15.2929C26.6054 15.4804 26.5 15.7348 26.5 16C26.5 16.2652 26.6054 16.5196 26.7929 16.7071C26.9804 16.8946 27.2348 17 27.5 17H30C30.2652 17 30.5196 16.8946 30.7071 16.7071C30.8946 16.5196 31 16.2652 31 16C31 15.7348 30.8946 15.4804 30.7071 15.2929C30.5196 15.1054 30.2652 15 30 15Z" fill="black"/>
<path d="M24.1375 8.86256C24.2674 8.86371 24.3963 8.83886 24.5165 8.78949C24.6367 8.74012 24.7458 8.66721 24.8375 8.57506L26.6125 6.81256C26.7719 6.61826 26.8534 6.3716 26.8411 6.12055C26.8288 5.8695 26.7235 5.632 26.5458 5.45427C26.368 5.27654 26.1305 5.17126 25.8795 5.15893C25.6284 5.1466 25.3818 5.2281 25.1875 5.38756L23.425 7.16256C23.238 7.35003 23.1329 7.60401 23.1329 7.86881C23.1329 8.13361 23.238 8.38759 23.425 8.57506C23.5181 8.66874 23.6292 8.74253 23.7517 8.79195C23.8742 8.84137 24.0054 8.86539 24.1375 8.86256V8.86256Z" fill="black"/>
</svg>
